Coordinates
version=1
nRows=10
nColumns=46
inDegrees=yes

Units are S.I. units (second, meters, Newtons, ...)
Angles are in degrees.

endheader
time	pelvis_tilt	pelvis_list	pelvis_rotation	pelvis_tx	pelvis_ty	pelvis_tz	bb_angle	bb_tx	bb_ty	bb_tz	hip_flexion_r	hip_adduction_r	hip_rotation_r	knee_angle_r	knee_angle_r_beta	ankle_angle_r	subtalar_angle_r	mtp_angle_r	crank_angle_r	hip_flexion_l	hip_adduction_l	hip_rotation_l	knee_angle_l	knee_angle_l_beta	ankle_angle_l	subtalar_angle_l	mtp_angle_l	crank_angle_l	lumbar_extension	lumbar_bending	lumbar_rotation	arm_flex_r	arm_add_r	arm_rot_r	elbow_flex_r	pro_sup_r	wrist_flex_r	wrist_dev_r	arm_flex_l	arm_add_l	arm_rot_l	elbow_flex_l	pro_sup_l	wrist_flex_l	wrist_dev_l
      2.50500000	    -29.87622028	      8.62307797	     11.27787592	      0.22886750	      1.05870282	     -0.17703901	      0.00000000	      0.50000000	      0.00000000	      0.25000000	     35.41091439	    -16.21349092	    -11.59361877	     21.98412512	      0.38369537	    -36.26525093	     -7.12263886	      0.00000000	      0.00000000	     85.59891408	     -0.17290340	     -2.83250183	     99.50542517	      1.73669729	     23.15043373	      6.12888901	      0.00000000	      0.00000000	    -45.85129060	     -5.84636334	    -12.30540464	     60.43361560	    -14.15551121	     27.23266127	     58.07745113	     46.63159870	      0.00000000	      0.00000000	     66.70808709	     -8.78632841	     23.75426568	     64.88726667	     47.27338680	      0.00000000	      0.00000000
      2.51000000	    -30.76127670	      8.26304192	     11.45757389	      0.22858945	      1.06200383	     -0.17778863	      0.00000000	      0.50000000	      0.00000000	      0.25000000	     35.59165561	    -16.04762922	    -11.98203496	     20.98451702	      0.36624891	    -36.76110998	     -6.46676938	      0.00000000	      0.00000000	     85.80713378	      0.15511680	     -2.73050567	     97.78379505	      1.70664918	     23.57039128	      6.03733200	      0.00000000	      0.00000000	    -45.41753719	     -5.79511806	    -12.30351446	     60.60724800	    -14.12788951	     27.08834445	     57.79837111	     46.58765059	      0.00000000	      0.00000000	     66.97387978	     -8.57646545	     23.77021990	     64.96868502	     47.29189114	      0.00000000	      0.00000000
      2.51500000	    -31.39615938	      7.92254154	     11.70727773	      0.22858354	      1.06568026	     -0.17876107	      0.00000000	      0.50000000	      0.00000000	      0.25000000	     35.37195962	    -15.95074934	    -12.68445423	     19.85417665	      0.34652075	    -37.06788919	     -5.22712235	      0.00000000	      0.00000000	     85.76025355	      0.61544402	     -2.59214180	     96.08309968	      1.67696644	     23.55423211	      5.60231797	      0.00000000	      0.00000000	    -45.26508824	     -5.73605135	    -12.28427080	     60.72958687	    -14.12883801	     26.74170899	     56.99826003	     46.46541674	      0.00000000	      0.00000000	     67.15527897	     -8.11839931	     23.90098624	     64.89947694	     47.30358549	      0.00000000	      0.00000000
      2.52000000	    -32.01184118	      7.63000081	     11.93585150	      0.22839412	      1.06908453	     -0.17969309	      0.00000000	      0.50000000	      0.00000000	      0.25000000	     35.24510859	    -15.87453070	    -13.19141914	     19.06379581	      0.33272600	    -36.63027597	     -4.21672609	      0.00000000	      0.00000000	     85.71312322	      1.07987695	     -2.44535506	     94.45491784	      1.64854931	     23.57093509	      5.08294745	      0.00000000	      0.00000000	    -45.08019764	     -5.67020713	    -12.34855624	     61.13633581	    -13.80213456	     26.21288684	     55.75615924	     46.32074719	      0.00000000	      0.00000000	     67.58675401	     -7.71292527	     24.04774381	     64.37284602	     47.25396533	      0.00000000	      0.00000000
      2.52500000	    -32.77085676	      7.28935301	     12.07834087	      0.22817892	      1.07219935	     -0.18041559	      0.00000000	      0.50000000	      0.00000000	      0.25000000	     35.33967072	    -15.65138245	    -13.37183422	     18.39161720	      0.32099427	    -36.37986849	     -3.80179963	      0.00000000	      0.00000000	     85.78443024	      1.42505104	     -2.23953547	     92.79491201	      1.61957674	     23.90450453	      5.01748654	      0.00000000	      0.00000000	    -44.76591073	     -5.67302879	    -12.36676857	     61.27200922	    -13.86277776	     26.10107036	     55.49362572	     46.29058746	      0.00000000	      0.00000000	     67.78766232	     -7.50337674	     24.14341925	     64.40578400	     47.27420548	      0.00000000	      0.00000000
      2.53000000	    -33.47939148	      6.92429017	     12.26240443	      0.22800206	      1.07526219	     -0.18131518	      0.00000000	      0.50000000	      0.00000000	      0.25000000	     35.41923579	    -15.44846465	    -13.62732985	     17.90755353	      0.31254577	    -35.83445857	     -3.45838217	      0.00000000	      0.00000000	     85.81465530	      1.80534368	     -2.03697468	     91.09907086	      1.58997873	     24.08791489	      4.82216432	      0.00000000	      0.00000000	    -44.48485341	     -5.56135223	    -12.30447254	     61.40017947	    -13.97531195	     25.96478962	     55.16338020	     46.24653775	      0.00000000	      0.00000000	     68.01034688	     -7.23662611	     24.28551733	     64.41729047	     47.29480423	      0.00000000	      0.00000000
      2.53500000	    -34.16089197	      6.58536806	     12.37012095	      0.22786253	      1.07812474	     -0.18242361	      0.00000000	      0.50000000	      0.00000000	      0.25000000	     35.55315975	    -15.28056150	    -13.88256416	     17.55381021	      0.30637178	    -35.10524809	     -2.68641253	      0.00000000	      0.00000000	     85.82662017	      2.18908779	     -1.82884641	     89.44337834	      1.56108145	     24.00530987	      4.20265439	      0.00000000	      0.00000000	    -44.12863161	     -5.44049752	    -12.15564259	     61.55979273	    -14.10349761	     25.77218195	     54.67406669	     46.18448946	      0.00000000	      0.00000000	     68.21039013	     -6.91236256	     24.49809470	     64.30742507	     47.30511934	      0.00000000	      0.00000000
      2.54000000	    -34.75308421	      6.27814241	     12.50861129	      0.22776326	      1.08107842	     -0.18332427	      0.00000000	      0.50000000	      0.00000000	      0.25000000	     35.65166527	    -15.09984862	    -13.98929867	     17.31996904	      0.30229049	    -34.55560800	     -2.43447600	      0.00000000	      0.00000000	     85.72191154	      2.55885712	     -1.62765081	     87.73031655	      1.53118288	     24.10594831	      3.94746325	      0.00000000	      0.00000000	    -43.95692385	     -5.35893285	    -12.12450786	     61.73295565	    -14.15605534	     25.68864504	     54.49470529	     46.16657870	      0.00000000	      0.00000000	     68.45109921	     -6.66057691	     24.62395348	     64.27011861	     47.31407440	      0.00000000	      0.00000000
      2.54500000	    -35.41073079	      5.97840819	     12.65956501	      0.22782911	      1.08377141	     -0.18460949	      0.00000000	      0.50000000	      0.00000000	      0.25000000	     35.88852455	    -15.01092643	    -14.26470371	     17.18296195	      0.29989926	    -34.04169098	     -2.02579843	      0.00000000	      0.00000000	     85.65849140	      3.01279481	     -1.41691795	     85.99247834	      1.50085188	     23.99394099	      3.46871773	      0.00000000	      0.00000000	    -43.71124762	     -5.30791149	    -12.08788266	     61.80712109	    -14.37320611	     25.51477203	     54.16936311	     46.12598384	      0.00000000	      0.00000000	     68.64815585	     -6.33105039	     24.82535891	     64.18049563	     47.32424268	      0.00000000	      0.00000000
      2.55000000	    -35.87630900	      5.72403671	     12.64675934	      0.22793883	      1.08649998	     -0.18551089	      0.00000000	      0.50000000	      0.00000000	      0.25000000	     36.07566230	    -14.82856464	    -14.31825085	     17.12075101	      0.29881348	    -33.85790268	     -1.85338671	      0.00000000	      0.00000000	     85.40384438	      3.23748058	     -1.25261037	     84.32671049	      1.47177875	     23.97013353	      3.12757492	      0.00000000	      0.00000000	    -43.58114943	     -5.23737543	    -11.95558464	     61.90922164	    -14.48806451	     25.42151638	     54.00358526	     46.10591610	      0.00000000	      0.00000000	     68.84267193	     -6.12597162	     24.93455965	     64.14784709	     47.33182320	      0.00000000	      0.00000000
